<svg id="Layer_1" data-name="Layer 1" xmlns="http://www.w3.org/2000/svg" viewBox="0 0 852.34 750"><defs><style>.cls-1{fill:#ffff53;}.cls-2{fill:#4dffff;}.cls-3{fill:#5bf390;}.cls-4{fill:#ff4cff;}.cls-5{fill:#ff813d;}.cls-6{fill:#6060ef;}.cls-7{font-size:247.5px;font-family:Brandon Grotesque;font-style:italic;}.cls-7,.cls-9{fill:#333;}.cls-8{letter-spacing:-2px;}</style></defs><title>identity-concept</title><polygon class="cls-1" points="125 750 0 750 81.87 150 206.87 150 125 750"/><polygon class="cls-2" points="270.47 600 145.47 600 227.34 0 352.34 0 270.47 600"/><polygon class="cls-3" points="375 750 250 750 331.87 150 456.87 150 375 750"/><polygon class="cls-4" points="520.47 600 395.47 600 477.34 0 602.34 0 520.47 600"/><polygon class="cls-5" points="625 750 500 750 581.87 150 706.87 150 625 750"/><polygon class="cls-6" points="770.47 600 645.47 600 727.34 0 852.34 0 770.47 600"/><text class="cls-7" transform="translate(117.84 448.71)"><tspan class="cls-8">E</tspan><tspan x="132.16" y="0">li</tspan><tspan class="cls-8" x="258.14" y="0">.</tspan><tspan x="315.81" y="0">wtf</tspan></text><polygon class="cls-1" points="125 750 0 750 81.87 150 206.87 150 125 750"/><polygon class="cls-2" points="270.47 600 145.47 600 227.34 0 352.34 0 270.47 600"/><polygon class="cls-3" points="375 750 250 750 331.87 150 456.87 150 375 750"/><polygon class="cls-4" points="520.47 600 395.47 600 477.34 0 602.34 0 520.47 600"/><polygon class="cls-5" points="625 750 500 750 581.87 150 706.87 150 625 750"/><polygon class="cls-6" points="770.47 600 645.47 600 727.34 0 852.34 0 770.47 600"/><path class="cls-9" d="M152.49,280.16c0.25-2.47,2.48-4.7,4.7-4.7H250.5c2.48,0,4,2.23,3.71,4.7l-4,27a5.06,5.06,0,0,1-4.7,4.7h-58.9l-4.45,30.69h48c2.23,0,4,2.23,3.71,4.7l-4,27c-0.49,2.72-2.72,4.7-4.95,4.7H177.24l-4.7,33.41h58.9c2.47,0,3.71,2.23,3.46,4.7l-3.71,27a5.29,5.29,0,0,1-5,4.7H132.93c-2.47,0-4-2.23-3.46-4.7Z"/><path class="cls-9" d="M277,280.16a5.51,5.51,0,0,1,5-4.7h28.21c2.23,0,4,2.23,3.71,4.7L290.84,444a5.51,5.51,0,0,1-4.95,4.7H257.43c-2.23,0-3.71-2.23-3.46-4.7Z"/><path class="cls-9" d="M329.45,354.41c0.49-2.72,2.72-4.7,4.95-4.7h28.46c2.23,0,4,2,3.71,4.7L354,444a5.51,5.51,0,0,1-4.95,4.7H320.54c-2.23,0-4-2.23-3.71-4.7Zm6.68-51.73c0-12.13,10.4-22.27,22-22.27,9.65,0,16.83,7.92,16.83,17.32,0,12.38-10.89,22-22.27,22C343.06,319.76,336.13,312.09,336.13,302.68Z"/><path class="cls-9" d="M402.46,404.16c11.38,0,20,9.65,20,21,0,14.11-13.12,26-26.48,26-11.38,0-19.8-9.41-19.8-20.54C376.22,416.53,389.09,404.16,402.46,404.16Z"/><path class="cls-9" d="M439.34,355.9a5,5,0,0,1,4.7-6.19h22.27a3.73,3.73,0,0,1,3.71,3l7.18,32.92h0.25l25.49-33.91a4,4,0,0,1,3.71-2h2.48a3.34,3.34,0,0,1,3,2l15.84,33.91h0.25l15.34-32.92c1.24-2.23,1.49-3,5.2-3h23.51c3.22,0,5,3,3.46,6.19l-44.05,92.32a4.31,4.31,0,0,1-4.21,3h-1a3.44,3.44,0,0,1-3.22-2l-22.52-47.52L465.32,449.2a4.22,4.22,0,0,1-4,2h-1a3.3,3.3,0,0,1-3.46-3Z"/><path class="cls-9" d="M593.28,381.14h-8.42c-2.23,0-3.46-2.23-3.22-4.7l3-22a5,5,0,0,1,4.7-4.7h8.41l3.71-27.47a5.51,5.51,0,0,1,5-4.7h27.72c2.23,0,3.46,2.23,3.22,4.7l-3.71,27.47H648c2.48,0,3.71,2,3.46,4.7l-3,22a5.29,5.29,0,0,1-5,4.7H629.17L625,411.83c-0.74,5.45,3.22,5.94,5.2,5.94a27.1,27.1,0,0,0,6.68-1,3.45,3.45,0,0,1,4.45,3.22l2,18.31c0.5,3.71-1.73,5.94-3.71,7.18-2.48,1.48-15.34,5.69-28,5.69-15.84,0-26.48-11.88-23.26-34.4Z"/><path class="cls-9" d="M664.31,376.44l3.22-22a4.86,4.86,0,0,1,4.7-4.7h7.92l3.22-22.77c5-34.65,25.49-54,55.19-54,11.39,0,23,5.69,26.24,9.4,1.24,1.24,1.24,4,0,5.69l-11.88,19.3c-1,1.49-3.46,2.72-5.2,1.73a25.73,25.73,0,0,0-11.38-2.72c-9.16,0-13.37,8.42-15.1,20.54L718,349.71h19.3c2.48,0,4.21,2,4,4.7l-3.22,22a5.54,5.54,0,0,1-5.2,4.7h-19.3L695,518.25A5.51,5.51,0,0,1,690,523H660.6c-2.23,0-3.71-2.23-3.46-4.7l18.56-137.11h-7.92C665.3,381.14,664.06,378.91,664.31,376.44Z"/></svg>