<svg xmlns="http://www.w3.org/2000/svg" xmlns:xlink="http://www.w3.org/1999/xlink" version="1.1" x="0px" y="0px" viewBox="0 0 100 100" enable-background="new 0 0 100 100" xml:space="preserve"><path d="M41.231,75.842c-11.689,0-21.237-5.613-21.393-5.707c-0.914-0.551-1.315-1.667-0.964-2.675  c0.354-1.005,1.354-1.641,2.426-1.482c6.331,0.847,10.74-1.148,13.102-2.725c-5.854-4.436-18.958-16.954-10.919-35.514  c0.331-0.765,1.061-1.286,1.89-1.351c0.812-0.056,1.632,0.337,2.077,1.04c0.24,0.375,5.877,8.856,19.966,10.632  c0.032-7.682,6.29-13.922,13.975-13.922c3.428,0,6.659,1.23,9.217,3.489c3.697-0.393,6.609-0.478,6.744-0.483  c0.305,0.003,0.595,0.044,0.858,0.144c0.495-0.182,1.052-0.196,1.588,0.003c1.16,0.439,1.746,1.737,1.307,2.897  c-0.431,1.143-2.502,6.36-5.32,9.029c0.703,6.489-0.908,16.028-11.312,26.742C57.119,73.53,48.734,75.842,41.231,75.842z   M30.617,69.848c8.065,2.408,20.438,3.466,30.627-7.022C71.076,52.7,72.063,44.072,71.161,38.62  c-0.149-0.908,0.27-1.816,1.058-2.294c1.014-0.609,2.259-2.566,3.281-4.588c-1.365,0.082-3.311,0.229-5.42,0.478  c-0.691,0.07-1.392-0.164-1.881-0.671c-1.813-1.875-4.233-2.906-6.809-2.906c-5.224,0-9.475,4.254-9.475,9.48  c0,0.683,0.067,1.336,0.205,1.939c0.152,0.691-0.026,1.412-0.483,1.951c-0.46,0.539-1.157,0.832-1.849,0.788  c-12.422-0.75-19.831-6.152-23.44-9.747c-4.951,17.499,12.12,27.636,12.896,28.087c0.583,0.337,0.987,0.923,1.096,1.588  c0.105,0.668-0.091,1.348-0.539,1.854C39.617,64.791,36.494,68.225,30.617,69.848z"/></svg>